<?xml version="1.0" encoding="utf-8"?>
<!-- Generator: Adobe Illustrator 17.1.0, SVG Export Plug-In . SVG Version: 6.00 Build 0)  -->
<!DOCTYPE svg PUBLIC "-//W3C//DTD SVG 1.1//EN" "http://www.w3.org/Graphics/SVG/1.1/DTD/svg11.dtd">
<svg version="1.1" id="Ebene_1" xmlns="http://www.w3.org/2000/svg" xmlns:xlink="http://www.w3.org/1999/xlink" x="0px" y="0px"
	 viewBox="0 0 878.5 397.2" enable-background="new 0 0 878.5 397.2" xml:space="preserve">
<g>
	<g>
		<path fill="none" stroke="#000000" stroke-width="3.0741" stroke-miterlimit="10" d="M614.6,238c0,13.2-10.8,24-24,24h-319
			c-13.2,0-24-10.8-24-24V59.5c0-13.2,10.8-24,24-24h319c13.2,0,24,10.8,24,24V238z"/>
	</g>
	<line fill="none" stroke="#000000" stroke-width="3.0741" stroke-miterlimit="10" x1="247.6" y1="84.3" x2="614.6" y2="84.3"/>
	<line fill="none" stroke="#000000" stroke-width="3.0741" stroke-miterlimit="10" x1="247.6" y1="128.3" x2="614.6" y2="128.3"/>
	<g>
		<path fill="none" stroke="#000000" stroke-width="3.0741" stroke-miterlimit="10" d="M574.6,208.5c0,6.3-5.2,11.5-11.5,11.5h-31.6
			c-6.3,0-11.5-5.2-11.5-11.5v-31.6c0-6.3,5.2-11.5,11.5-11.5h31.6c6.3,0,11.5,5.2,11.5,11.5V208.5z"/>
	</g>
	<path fill="none" stroke="#000000" stroke-width="3.0741" stroke-miterlimit="10" d="M296.7,207.8c0,0,17.4-14.6,25.5-22.5
		c8-7.8,16.1-12.7,14.7,0c-1.3,12.7,0.1,15.1,0.1,15.1s24-7.3,30.7-15.1c6.7-7.8-5.4,15.1-5.4,15.1s32.2-6.3,56.3-7.7"/>
	<g>
		<path fill="none" stroke="#000000" stroke-width="1.286" stroke-miterlimit="10" d="M96,389.5c0,3.4-2.8,6.2-6.2,6.2H7.6
			c-3.4,0-6.2-2.8-6.2-6.2v-46c0-3.4,2.8-6.2,6.2-6.2h82.2c3.4,0,6.2,2.8,6.2,6.2V389.5z"/>
	</g>
	<line fill="none" stroke="#000000" stroke-width="1.2864" stroke-miterlimit="10" x1="1.5" y1="371.6" x2="96" y2="371.6"/>
	<line fill="none" stroke="#000000" stroke-width="1.2864" stroke-miterlimit="10" x1="1.5" y1="382.9" x2="96" y2="382.9"/>
	<g>
		<path fill="none" stroke="#000000" stroke-width="1.2864" stroke-miterlimit="10" d="M207.4,389.5c0,3.4-2.8,6.2-6.2,6.2H119
			c-3.4,0-6.2-2.8-6.2-6.2v-46c0-3.4,2.8-6.2,6.2-6.2h82.2c3.4,0,6.2,2.8,6.2,6.2V389.5z"/>
	</g>
	<g>
		<path fill="none" stroke="#000000" stroke-width="1.2864" stroke-miterlimit="10" d="M318.9,389.5c0,3.4-2.8,6.2-6.2,6.2h-82.2
			c-3.4,0-6.2-2.8-6.2-6.2v-46c0-3.4,2.8-6.2,6.2-6.2h82.2c3.4,0,6.2,2.8,6.2,6.2V389.5z"/>
	</g>
	<text transform="matrix(1 0 0 1 243.0278 358.1261)" font-family="'Helvetica-Oblique'" font-size="17.5512">one</text>
	
		<text transform="matrix(2.244832e-11 -1 1 2.244832e-11 246.1401 385.0987)" font-family="'Helvetica-Oblique'" font-size="17.5512">my</text>
	<g>
		<path fill="none" stroke="#000000" stroke-width="1.2862" stroke-miterlimit="10" d="M431.1,389.5c0,3.4-2.8,6.2-6.2,6.2h-82.2
			c-3.4,0-6.2-2.8-6.2-6.2v-46c0-3.4,2.8-6.2,6.2-6.2h82.2c3.4,0,6.2,2.8,6.2,6.2V389.5z"/>
	</g>
	<g>
		<path fill="none" stroke="#000000" stroke-width="1.2864" stroke-miterlimit="10" d="M654.2,389.5c0,3.4-2.8,6.2-6.2,6.2h-82.2
			c-3.4,0-6.2-2.8-6.2-6.2v-46c0-3.4,2.8-6.2,6.2-6.2H648c3.4,0,6.2,2.8,6.2,6.2V389.5z"/>
	</g>
	<text transform="matrix(1 0 0 1 581.9019 364.2335)"><tspan x="0" y="0" font-family="'Helvetica'" font-size="17.5512">reka</tspan><tspan x="0" y="14.4" font-family="'Helvetica'" font-size="17.5512" letter-spacing="14">	</tspan><tspan x="19.1" y="14.4" font-family="'Helvetica'" font-size="17.5512">card</tspan></text>
	<g>
		<path fill="none" stroke="#000000" stroke-width="1.2864" stroke-miterlimit="10" d="M765.8,389.5c0,3.4-2.8,6.2-6.2,6.2h-82.2
			c-3.4,0-6.2-2.8-6.2-6.2v-46c0-3.4,2.8-6.2,6.2-6.2h82.2c3.4,0,6.2,2.8,6.2,6.2V389.5z"/>
	</g>
	<text transform="matrix(1 0 0 1 675.73 360.3351)"><tspan x="0" y="0" font-family="'Helvetica-Light'" font-size="13.0102">Geschenkkarte</tspan><tspan x="0" y="10.7" font-family="'Helvetica-Light'" font-size="13.0102">Carte cadeau</tspan><tspan x="0" y="21.4" font-family="'Helvetica-Light'" font-size="13.0102">Carta regalo</tspan></text>
	<g>
		<path fill="none" stroke="#000000" stroke-width="1.2864" stroke-miterlimit="10" d="M877.1,389.5c0,3.4-2.8,6.2-6.2,6.2h-82.2
			c-3.4,0-6.2-2.8-6.2-6.2v-46c0-3.4,2.8-6.2,6.2-6.2h82.2c3.4,0,6.2,2.8,6.2,6.2V389.5z"/>
	</g>
	<g>
		<path fill="none" stroke="#000000" stroke-width="1.2864" stroke-miterlimit="10" d="M542.5,389.5c0,3.4-2.8,6.2-6.2,6.2H454
			c-3.4,0-6.2-2.8-6.2-6.2v-46c0-3.4,2.8-6.2,6.2-6.2h82.2c3.4,0,6.2,2.8,6.2,6.2V389.5z"/>
	</g>
	<text transform="matrix(1 0 0 1 470.0874 377.0294)" font-family="'Helvetica-Light'" font-size="26.4781">JCB</text>
	<text transform="matrix(1 0 0 1 7.686 367.4757)" font-family="'Helvetica-Oblique'" font-size="17.5512">m-card</text>
	<text transform="matrix(1 0 0 1 128.3018 364.2335)"><tspan x="0" y="0" font-family="'Helvetica-LightOblique'" font-size="17.5512">Maestro</tspan><tspan x="0" y="14.3" font-family="'Helvetica-LightOblique'" font-size="17.5512">Master</tspan></text>
	<text transform="matrix(1 0 0 1 818.5015 377.0294)" font-family="'Helvetica-Light'" font-size="31.9729">€</text>
	<circle fill="none" stroke="#000000" stroke-width="1.2862" stroke-miterlimit="10" cx="365.1" cy="366.5" r="17.7"/>
	<path fill="none" stroke="#000000" stroke-width="1.2862" stroke-miterlimit="10" d="M373.9,348.8c9.8,0,17.7,7.9,17.7,17.7"/>
	<path fill="none" stroke="#000000" stroke-width="1.2862" stroke-miterlimit="10" d="M391.6,366.5c0,9.8-7.9,17.7-17.7,17.7"/>
	<line fill="none" stroke="#000000" stroke-width="1.2862" stroke-miterlimit="10" x1="365.1" y1="348.8" x2="375.5" y2="348.8"/>
	<line fill="none" stroke="#000000" stroke-width="1.2862" stroke-miterlimit="10" x1="365.1" y1="384.2" x2="375.5" y2="384.2"/>
	<path fill="none" stroke="#000000" stroke-width="1.3154" stroke-miterlimit="10" d="M159.6,383.3c-4.1,3.9-9.7,6.3-15.8,6.3
		c-12.7,0-23-10.3-23-23s10.3-23,23-23c6.1,0,11.5,2.2,15.7,6.1"/>
	<path fill="none" stroke="#000000" stroke-width="1.3154" stroke-miterlimit="10" d="M159.6,383.3c-4.1,3.9-9.7,6.3-15.8,6.3
		c-12.7,0-23-10.3-23-23s10.3-23,23-23c6,0,11.6,2.4,15.7,6.1l0,0c4.1-3.9,9.6-6.1,15.7-6.1c12.7,0,23,10.3,23,23s-10.3,23-23,23
		c-6.2,0-11.8-2.4-15.9-6.4"/>
	<path fill="none" stroke="#000000" stroke-width="1.2862" stroke-miterlimit="10" d="M360.9,356.7v19.6l0,0
		c-3.9-1.6-6.5-5.4-6.5-9.8C354.4,362.1,357,358.2,360.9,356.7L360.9,356.7z"/>
	<path fill="none" stroke="#000000" stroke-width="1.2862" stroke-miterlimit="10" d="M368.9,356.5v19.8l0,0.1
		c4-1.5,6.8-5.4,6.8-9.9C375.7,361.9,372.9,358,368.9,356.5L368.9,356.5z"/>
</g>
</svg>
