<?xml version="1.0" encoding="utf-8"?>
<!-- Generator: Adobe Illustrator 16.2.1, SVG Export Plug-In . SVG Version: 6.00 Build 0)  -->
<!DOCTYPE svg PUBLIC "-//W3C//DTD SVG 1.1//EN" "http://www.w3.org/Graphics/SVG/1.1/DTD/svg11.dtd">
<svg version="1.1" id="Ebene_1" xmlns="http://www.w3.org/2000/svg" xmlns:xlink="http://www.w3.org/1999/xlink" x="0px" y="0px"
	 width="78.778px" height="49.723px" viewBox="0 0 78.778 49.723" enable-background="new 0 0 78.778 49.723" xml:space="preserve">
<g>
	<path fill="#FFFFFF" d="M29.588-0.017c-1.1,0-2.639,0.633-3.42,1.408L3.784,23.576c-0.781,0.774-0.781,2.041,0.001,2.815
		l22.031,21.811c0.782,0.774,2.321,1.414,3.421,1.422l47.541,0.346c1.1,0.008,2-0.886,2-1.985v-46c0-1.1-0.9-2-2-2H29.588z
		 M64.966,34.3c0.768,0.788,0.749,2.061-0.04,2.827l-0.047,0.046c-0.789,0.767-2.077,0.764-2.862-0.007l-7.937-7.782
		c-0.785-0.771-2.072-0.772-2.861-0.006l-8.008,7.794c-0.788,0.767-2.069,0.758-2.848-0.02l-0.004-0.005
		c-0.778-0.777-0.783-2.056-0.011-2.839l7.861-7.983c0.771-0.784,0.77-2.064-0.006-2.845l-7.85-7.911
		c-0.775-0.781-0.782-2.065-0.015-2.854l0.046-0.047c0.767-0.789,2.035-0.803,2.818-0.031l8.066,7.943
		c0.783,0.772,2.063,0.77,2.845-0.005l7.994-7.933c0.781-0.775,2.047-0.763,2.813,0.026l0.046,0.047
		c0.767,0.789,0.761,2.074-0.013,2.856l-7.771,7.855c-0.773,0.782-0.779,2.067-0.012,2.855L64.966,34.3z"/>
</g>
</svg>
