<?xml version="1.0" encoding="utf-8"?>
<!-- Generator: Adobe Illustrator 17.1.0, SVG Export Plug-In . SVG Version: 6.00 Build 0)  -->
<!DOCTYPE svg PUBLIC "-//W3C//DTD SVG 1.1//EN" "http://www.w3.org/Graphics/SVG/1.1/DTD/svg11.dtd">
<svg version="1.1" id="Ebene_1" xmlns="http://www.w3.org/2000/svg" xmlns:xlink="http://www.w3.org/1999/xlink" x="0px" y="0px"
	 viewBox="0 0 878.5 397.2" enable-background="new 0 0 878.5 397.2" xml:space="preserve">
<g>
	<text transform="matrix(1 0 0 1 183.4302 388.0334)" font-family="'Helvetica-Light'" font-size="22.0237">50</text>
	<text transform="matrix(1 0 0 1 2.9746 346.6378)"><tspan x="0" y="0" font-family="'Helvetica-Light'" font-size="41.6287">C</tspan><tspan x="30.1" y="0" font-family="'Helvetica-Light'" font-size="39.8616">HF</tspan></text>
	<text transform="matrix(1 0 0 1 21.2876 388.0334)"><tspan x="0" y="0" font-family="'Helvetica-Light'" font-size="22.0237" letter-spacing="-2">1</tspan><tspan x="10" y="0" font-family="'Helvetica-Light'" font-size="22.0237">0</tspan></text>
	<text transform="matrix(1 0 0 1 328.6436 346.6369)" font-family="'Helvetica-Light'" font-size="39.8616">€</text>
	<text transform="matrix(1 0 0 1 351.3071 388.0334)" font-family="'Helvetica-Light'" font-size="22.0237">5</text>
	<text transform="matrix(1 0 0 1 258.5215 388.0334)"><tspan x="0" y="0" font-family="'Helvetica-Light'" font-size="22.0237" letter-spacing="-2">1</tspan><tspan x="10" y="0" font-family="'Helvetica-Light'" font-size="22.0237">00</tspan></text>
	<text transform="matrix(1 0 0 1 101.6279 388.0334)" font-family="'Helvetica-Light'" font-size="22.0237">20</text>
	<text transform="matrix(1 0 0 1 750.3052 387.9425)"><tspan x="0" y="0" font-family="'Helvetica-Light'" font-size="22.0237" letter-spacing="-2">1</tspan><tspan x="10" y="0" font-family="'Helvetica-Light'" font-size="22.0237">0</tspan></text>
	<text transform="matrix(1 0 0 1 832.2329 387.9425)" font-family="'Helvetica-Light'" font-size="22.0237">50</text>
	<text transform="matrix(1 0 0 1 588.5737 388.0334)" font-family="'Helvetica-Light'" font-size="22.0237">50</text>
	<text transform="matrix(1 0 0 1 426.4302 388.0334)"><tspan x="0" y="0" font-family="'Helvetica-Light'" font-size="22.0237" letter-spacing="-2">1</tspan><tspan x="10" y="0" font-family="'Helvetica-Light'" font-size="22.0237">0</tspan></text>
	<text transform="matrix(1 0 0 1 663.6636 388.0334)"><tspan x="0" y="0" font-family="'Helvetica-Light'" font-size="22.0237" letter-spacing="-2">1</tspan><tspan x="10" y="0" font-family="'Helvetica-Light'" font-size="22.0237">00</tspan></text>
	<text transform="matrix(1 0 0 1 507.8794 388.0334)" font-family="'Helvetica-Light'" font-size="22.0237">20</text>
	<text transform="matrix(1 0 0 1 726.6196 346.6369)" font-family="'Helvetica-Light'" font-size="39.8616">reka</text>
	<rect x="1.7" y="364.3" fill="none" stroke="#000000" stroke-width="1.3597" stroke-miterlimit="10" width="65.7" height="31.2"/>
	<rect x="82" y="364.3" fill="none" stroke="#000000" stroke-width="1.3597" stroke-miterlimit="10" width="65.7" height="31.2"/>
	<rect x="163" y="364.3" fill="none" stroke="#000000" stroke-width="1.3597" stroke-miterlimit="10" width="65.7" height="31.2"/>
	
		<rect x="244.1" y="364.3" fill="none" stroke="#000000" stroke-width="1.3597" stroke-miterlimit="10" width="65.7" height="31.2"/>
	
		<rect x="325.1" y="364.3" fill="none" stroke="#000000" stroke-width="1.3597" stroke-miterlimit="10" width="65.7" height="31.2"/>
	
		<rect x="406.1" y="364.3" fill="none" stroke="#000000" stroke-width="1.3597" stroke-miterlimit="10" width="65.7" height="31.2"/>
	
		<rect x="487.1" y="364.3" fill="none" stroke="#000000" stroke-width="1.3597" stroke-miterlimit="10" width="65.7" height="31.2"/>
	
		<rect x="568.1" y="364.3" fill="none" stroke="#000000" stroke-width="1.3597" stroke-miterlimit="10" width="65.7" height="31.2"/>
	
		<rect x="649.1" y="364.3" fill="none" stroke="#000000" stroke-width="1.3597" stroke-miterlimit="10" width="65.7" height="31.2"/>
	
		<rect x="730.1" y="364.3" fill="none" stroke="#000000" stroke-width="1.3597" stroke-miterlimit="10" width="65.7" height="31.2"/>
	
		<rect x="811.1" y="364.3" fill="none" stroke="#000000" stroke-width="1.3597" stroke-miterlimit="10" width="65.7" height="31.2"/>
	<path fill="none" stroke="#000000" stroke-width="3.046" stroke-miterlimit="10" d="M238.4,190.6c4.3,0,43.9-11.8,59.9-30
		s52.4-73.5,66.3-86.9c8.9-8.6,23.5-39.7,33.2-46.1c9.6-6.4,26.5-2.9,50.3,0c27.3,3.3,18,2.6,39.6,5.4c19.2,2.5,36.5,1.4,42.2,0.7"
		/>
	<path fill="none" stroke="#000000" stroke-width="3.046" stroke-miterlimit="10" d="M411.5,54.1c0,0,10.4,47.7,25.6,47.7"/>
	<path fill="none" stroke="#000000" stroke-width="3.046" stroke-miterlimit="10" d="M454.3,54.1c0,0,2.9,28.4,9.8,29.6"/>
	<path fill="none" stroke="#000000" stroke-width="3.046" stroke-miterlimit="10" d="M352.4,237.9c0,0-1.9-2.1,24.9-2.9
		c5-0.2,9.7-0.4,13.9-0.7c26.7-2.1,52.4-49.3,68.4-69.7s18.2-21.4,28.9-24.7s60.4-31.8,64.8-41.4C575.1,51.9,512,67.7,512,67.7
		l-4.1,0.7c-3.2,0.9-21.3,4.7-33.2,9.3c-10,3.9-35.3,24.7-46,31.6c-10.7,7-32.1,6.4-43.9,11.8c-11.8,5.4-26.7,20.9-32.1,29.5"/>
	<path fill="none" stroke="#000000" stroke-width="3.046" stroke-miterlimit="10" d="M290.7,296.5c3.2-1.1,62-57.6,86.6-61.5"/>
	<path fill="none" stroke="#000000" stroke-width="3.046" stroke-miterlimit="10" d="M554.4,121.2c0.5,20-1.5,47-17.7,64.9
		c-13.1,14.4-21.1,11.3-24.8,0.6c-1.3-3.6-1.9-7.8-1.9-12.4c0-1.5-0.2-2.1,0.2-6.9c1.1-14.8,5.7-29.2,6.5-31.3"/>
	<path fill="none" stroke="#000000" stroke-width="3.046" stroke-miterlimit="10" d="M486.1,140.7c0,0-25.8,48.7-8.3,52.4
		c22.3,4.7,32.1-18.9,32.1-18.9"/>
	<path fill="none" stroke="#000000" stroke-width="3.046" stroke-miterlimit="10" d="M452.9,173.8c0.4,4.1,2.1,6,5.8,6.8
		c5.4,1.1,10.1,0.6,14-0.8"/>
	<path fill="none" stroke="#000000" stroke-width="3.046" stroke-miterlimit="10" d="M537.6,100.1c-4.6,2.4-17.2,10.6-19.1,7.7
		C509.7,94.6,507.7,79,507.7,79s10-4.3,14.8-5.1c0,0,22.5-6.3,25.3,5.1C550.6,90.8,542.9,97.3,537.6,100.1z"/>
	<path fill="none" stroke="#000000" stroke-width="3.046" stroke-miterlimit="10" d="M508.4,67.8"/>
	<path fill="none" stroke="#000000" stroke-width="3.046" stroke-miterlimit="10" d="M511.7,67.8c0.1-0.9,0.5-4.1,0.7-5
		c1.1-5.9,3.3-11.3,6.2-16.2c3.1-5.1,7.1-9.6,11.7-13.3c11-8.7,25.5-12.8,40.3-9.9c26.9,5.2,44.4,31.3,39.2,58.3
		c-5.2,27-31.3,44.6-58.2,39.4c-1-0.2-1.9-0.4-2.9-0.6c-5.6-0.9-9.4-2.6-13.6-5.6"/>
	<g>
		<path fill="none" stroke="#000000" stroke-width="3.046" stroke-miterlimit="10" d="M638.9,135.4c0,4.6-3.4,6.9-7.6,5.2l0,0
			c-4.2-1.7-7.6-6.5-7.6-10.7V14.6c0-4.2,3.4-8.9,7.6-10.6l0,0c4.2-1.6,7.6,0.8,7.6,5.4V135.4z"/>
	</g>
</g>
</svg>
