<?xml version="1.0" encoding="utf-8"?>
<!-- Generator: Adobe Illustrator 15.0.2, SVG Export Plug-In . SVG Version: 6.00 Build 0)  -->
<!DOCTYPE svg PUBLIC "-//W3C//DTD SVG 1.1//EN" "http://www.w3.org/Graphics/SVG/1.1/DTD/svg11.dtd">
<svg version="1.1" id="Ebene_1" xmlns="http://www.w3.org/2000/svg" xmlns:xlink="http://www.w3.org/1999/xlink" x="0px" y="0px"
	 width="32.35px" height="28px" viewBox="0 0 32.35 28" enable-background="new 0 0 32.35 28" xml:space="preserve">
<g>
	<path fill="#FFFFFF" d="M22.667,14.391l-0.644,1.491c0.548,0.237,1.129,0.356,1.727,0.356c0.489,0,0.972-0.082,1.433-0.243
		l-0.534-1.533c-0.29,0.101-0.592,0.152-0.899,0.152C23.375,14.615,23.011,14.54,22.667,14.391z"/>
	<circle fill="#FFFFFF" cx="27.25" cy="14.27" r="1.335"/>
	
		<rect x="18.588" y="12.96" transform="matrix(-0.869 -0.4949 0.4949 -0.869 30.3858 35.5894)" fill="#FFFFFF" width="2.633" height="1.624"/>
	<path fill="#FFFFFF" d="M8.695,14.584c-0.323,0-0.642-0.057-0.945-0.167L7.189,15.94c0.484,0.178,0.991,0.268,1.506,0.268
		c0.571,0,1.128-0.109,1.655-0.326L9.734,14.38C9.403,14.516,9.054,14.584,8.695,14.584z"/>
	<circle fill="#FFFFFF" cx="5.108" cy="14.27" r="1.335"/>
	
		<rect x="11.648" y="12.412" transform="matrix(-0.5141 -0.8577 0.8577 -0.5141 7.0908 31.4735)" fill="#FFFFFF" width="1.624" height="2.633"/>
	<path fill="#FFFFFF" d="M14.613,11.586l0.554,1.527c0.299-0.108,0.611-0.163,0.93-0.163c0.363,0,0.718,0.07,1.053,0.21l0.625-1.499
		c-0.535-0.223-1.099-0.336-1.678-0.336C15.589,11.326,15.09,11.413,14.613,11.586z"/>
	<path fill="#FFFFFF" d="M30.929,1.457l-7.356,3.965l-4.643-3L16.15,0.626L14.91,1.27L8.573,4.562L0,0v23.106L8.573,28l7.366-4.893
		L23.462,28l8.888-4.894V1.214V0.691L30.929,1.457z M29.989,21.73l-5.886,3.196v-7.083h-1.18v6.954L16.5,20.643v-5.921h-1.125v5.921
		l-6.265,4.154v-6.954h-1.18v7.083L2.359,21.73V3.912l5.572,2.979v5.966h1.18V6.945l6.265-3.25v6.197H16.5V3.697l6.365,4.14v5.021
		h1.191V7.896l5.932-3.267V21.73z"/>
</g>
</svg>
